<?xml version="1.0" encoding="UTF-8"?>
<svg width="800" height="600" viewBox="0 0 800 600" fill="none" xmlns="http://www.w3.org/2000/svg">
  <!-- Background -->
  <rect width="800" height="600" fill="#F5F5F5"/>
  
  <!-- Dashboard Frame -->
  <rect x="50" y="50" width="700" height="500" rx="10" fill="white" stroke="#E0E0E0" stroke-width="2"/>
  
  <!-- Header -->
  <rect x="50" y="50" width="700" height="60" rx="10" fill="#2196F3"/>
  <circle cx="90" cy="80" r="20" fill="white"/>
  <rect x="120" y="70" width="100" height="20" rx="4" fill="white"/>
  <rect x="600" y="70" width="120" height="20" rx="4" fill="white"/>
  
  <!-- Sidebar -->
  <rect x="50" y="110" width="200" height="440" fill="#F8F9FA"/>
  <rect x="70" y="130" width="160" height="40" rx="4" fill="#E3F2FD"/>
  <rect x="70" y="180" width="160" height="40" rx="4" fill="#E0E0E0"/>
  <rect x="70" y="230" width="160" height="40" rx="4" fill="#E0E0E0"/>
  <rect x="70" y="280" width="160" height="40" rx="4" fill="#E0E0E0"/>
  <rect x="70" y="330" width="160" height="40" rx="4" fill="#E0E0E0"/>
  
  <!-- Main Content -->
  <rect x="270" y="130" width="460" height="100" rx="4" fill="#E3F2FD"/>
  <rect x="290" y="150" width="200" height="20" rx="4" fill="#2196F3"/>
  <rect x="290" y="180" width="150" height="30" rx="4" fill="#90CAF9"/>
  
  <!-- Charts -->
  <rect x="270" y="250" width="220" height="150" rx="4" fill="white" stroke="#E0E0E0"/>
  <rect x="290" y="270" width="180" height="20" rx="4" fill="#E0E0E0"/>
  <rect x="290" y="300" width="160" height="80" rx="4" fill="#E3F2FD"/>
  
  <rect x="510" y="250" width="220" height="150" rx="4" fill="white" stroke="#E0E0E0"/>
  <rect x="530" y="270" width="180" height="20" rx="4" fill="#E0E0E0"/>
  <rect x="530" y="300" width="160" height="80" rx="4" fill="#E3F2FD"/>
  
  <!-- Table -->
  <rect x="270" y="420" width="460" height="130" rx="4" fill="white" stroke="#E0E0E0"/>
  <rect x="290" y="440" width="420" height="20" rx="4" fill="#E0E0E0"/>
  <rect x="290" y="470" width="420" height="20" rx="4" fill="#F5F5F5"/>
  <rect x="290" y="500" width="420" height="20" rx="4" fill="#F5F5F5"/>
  <rect x="290" y="530" width="420" height="20" rx="4" fill="#F5F5F5"/>
</svg> 